<svg fill="none" xmlns="http://www.w3.org/2000/svg" viewBox="0 0 1677 364"><g clip-path="url(#clip0)"><path d="M286.272 73.8068L183.945 143.563l-9.248-123.4955 111.575 53.7393z" stroke="#253169" stroke-width="23"/><path d="M66.5523 113.429l73.0037 32.528-8.331-79.4867-64.6727 46.9587z" stroke="#D4161A" stroke-width="23"/><path d="M286.272 291.485l-102.327-69.756-9.248 123.495 111.575-53.739z" stroke="#5BA896" stroke-width="23"/><path d="M138.083 192.709l-85.8249 89.279-34.4057-118.966 120.2306 29.687z" stroke="#253169" stroke-width="23"/><path d="M203.661 183.161l95.25 54.993V128.168l-95.25 54.993z" stroke="#F6CC00" stroke-width="23"/><path d="M416.79 286c-1.927 0-3.564-.578-4.913-1.734-1.156-1.349-1.734-2.986-1.734-4.913V90.6361c0-2.1194.578-3.757 1.734-4.913 1.349-1.3487 2.986-2.023 4.913-2.023h65.603c29.093 0 50.093 6.5506 63.002 19.6519 12.909 12.909 19.652 32.464 20.23 58.667.193 5.587.289 13.101.289 22.542s-.096 17.051-.289 22.831c-.578 18.303-3.661 33.235-9.248 44.795-5.395 11.367-13.968 19.845-25.721 25.432S503.297 286 483.838 286H416.79zm65.603-24.565c13.294 0 23.794-1.83 31.501-5.491 7.899-3.661 13.583-9.441 17.051-17.34 3.661-8.092 5.684-18.881 6.069-32.368.385-11.56.578-18.785.578-21.675 0-3.083-.193-10.211-.578-21.386-.385-19.074-4.913-32.946-13.583-41.616-8.67-8.863-22.831-13.294-42.483-13.294h-42.483v153.17h43.928zM647.543 288.89c-9.441 0-18.207-1.927-26.299-5.78-8.092-3.853-14.546-9.055-19.363-15.606-4.624-6.743-6.936-14.161-6.936-22.253 0-12.716 5.202-23.12 15.606-31.212 10.597-8.285 24.854-13.679 42.772-16.184l43.061-6.069v-8.381c0-19.652-11.271-29.478-33.813-29.478-8.477 0-15.413 1.83-20.808 5.491-5.395 3.468-9.441 7.61-12.138 12.427-.578 1.734-1.349 2.986-2.312 3.757-.771.771-1.927 1.156-3.468 1.156h-12.427c-1.734 0-3.275-.578-4.624-1.734-1.156-1.349-1.734-2.89-1.734-4.624.193-4.624 2.312-9.826 6.358-15.606 4.239-5.973 10.693-11.078 19.363-15.317 8.67-4.431 19.363-6.647 32.079-6.647 21.579 0 37.088 5.106 46.529 15.317 9.441 10.019 14.161 22.542 14.161 37.57v93.636c0 1.927-.674 3.564-2.023 4.913-1.156 1.156-2.697 1.734-4.624 1.734h-13.294c-1.927 0-3.564-.578-4.913-1.734-1.156-1.349-1.734-2.986-1.734-4.913v-12.427c-4.239 6.165-10.404 11.367-18.496 15.606-8.092 4.239-18.4 6.358-30.923 6.358zm6.069-21.675c12.523 0 22.735-4.046 30.634-12.138 8.092-8.285 12.138-20.134 12.138-35.547v-8.092l-33.524 4.913c-13.679 1.927-23.987 5.202-30.923 9.826-6.936 4.431-10.404 10.115-10.404 17.051 0 7.707 3.179 13.679 9.537 17.918 6.358 4.046 13.872 6.069 22.542 6.069zM822.352 286c-30.441 0-45.662-16.955-45.662-50.864V158.84h-22.542c-1.927 0-3.564-.578-4.913-1.734-1.156-1.349-1.734-2.986-1.734-4.913v-9.826c0-1.927.578-3.468 1.734-4.624 1.349-1.349 2.986-2.023 4.913-2.023h22.542V87.4571c0-1.9267.578-3.468 1.734-4.624 1.349-1.3487 2.986-2.023 4.913-2.023h13.583c1.927 0 3.468.6743 4.624 2.023 1.349 1.156 2.023 2.6973 2.023 4.624V135.72h35.836c1.927 0 3.468.674 4.624 2.023 1.349 1.156 2.023 2.697 2.023 4.624v9.826c0 1.927-.674 3.564-2.023 4.913-1.156 1.156-2.697 1.734-4.624 1.734h-35.836v74.273c0 9.633 1.638 16.955 4.913 21.964 3.275 4.817 8.67 7.225 16.184 7.225h17.629c1.927 0 3.468.674 4.624 2.023 1.349 1.156 2.023 2.697 2.023 4.624v10.404c0 1.927-.674 3.564-2.023 4.913-1.156 1.156-2.697 1.734-4.624 1.734h-19.941zM918.481 288.89c-9.441 0-18.207-1.927-26.299-5.78-8.092-3.853-14.547-9.055-19.363-15.606-4.624-6.743-6.936-14.161-6.936-22.253 0-12.716 5.202-23.12 15.606-31.212 10.596-8.285 24.853-13.679 42.771-16.184l43.062-6.069v-8.381c0-19.652-11.271-29.478-33.813-29.478-8.478 0-15.414 1.83-20.808 5.491-5.395 3.468-9.441 7.61-12.139 12.427-.577 1.734-1.348 2.986-2.312 3.757-.77.771-1.926 1.156-3.467 1.156h-12.427c-1.734 0-3.276-.578-4.624-1.734-1.156-1.349-1.734-2.89-1.734-4.624.192-4.624 2.312-9.826 6.358-15.606 4.238-5.973 10.693-11.078 19.363-15.317 8.67-4.431 19.363-6.647 32.079-6.647 21.578 0 37.088 5.106 46.529 15.317 9.44 10.019 14.161 22.542 14.161 37.57v93.636c0 1.927-.675 3.564-2.023 4.913-1.156 1.156-2.698 1.734-4.624 1.734h-13.294c-1.927 0-3.565-.578-4.913-1.734-1.156-1.349-1.734-2.986-1.734-4.913v-12.427c-4.239 6.165-10.404 11.367-18.496 15.606-8.092 4.239-18.4 6.358-30.923 6.358zm6.068-21.675c12.524 0 22.735-4.046 30.635-12.138 8.092-8.285 12.138-20.134 12.138-35.547v-8.092l-33.524 4.913c-13.68 1.927-23.987 5.202-30.923 9.826-6.936 4.431-10.404 10.115-10.404 17.051 0 7.707 3.179 13.679 9.537 17.918 6.358 4.046 13.871 6.069 22.541 6.069zM1104.82 288.89c-16 0-29.87-2.505-41.62-7.514-11.56-5.009-20.42-11.56-26.59-19.652-6.16-8.285-9.44-17.147-9.82-26.588 0-1.541.57-2.89 1.73-4.046 1.35-1.349 2.89-2.023 4.62-2.023h14.74c3.66 0 6.17 1.927 7.52 5.78 1.73 8.092 6.64 15.028 14.74 20.808 8.28 5.78 19.84 8.67 34.68 8.67 15.99 0 28.03-2.794 36.12-8.381 8.09-5.78 12.14-13.776 12.14-23.987 0-6.551-2.02-11.849-6.07-15.895-3.85-4.046-9.63-7.61-17.34-10.693-7.71-3.083-19.27-6.936-34.68-11.56-15.03-4.239-26.97-8.766-35.84-13.583-8.86-4.817-15.51-10.789-19.94-17.918-4.43-7.129-6.64-16.088-6.64-26.877 0-10.404 2.79-19.748 8.38-28.033 5.78-8.2846 13.96-14.7389 24.56-19.363 10.6-4.8166 23.22-7.2249 37.86-7.2249 15.03 0 27.94 2.6973 38.73 8.092 10.79 5.202 18.97 11.8489 24.56 19.9409 5.59 8.092 8.58 16.184 8.96 24.276 0 1.541-.58 2.89-1.73 4.046-.97 1.156-2.41 1.734-4.34 1.734h-15.32c-4.04 0-6.55-1.83-7.51-5.491-1.16-8.092-5.68-14.739-13.58-19.941-7.9-5.395-17.82-8.092-29.77-8.092-13.1 0-23.41 2.505-30.92 7.514-7.52 5.009-11.27 12.427-11.27 22.253 0 6.551 1.73 11.945 5.2 16.184 3.66 4.239 9.15 7.996 16.47 11.271 7.32 3.083 18.02 6.647 32.08 10.693 16.38 4.431 29.29 9.055 38.73 13.872 9.44 4.624 16.47 10.5 21.09 17.629 4.63 6.936 6.94 15.799 6.94 26.588 0 17.918-6.94 31.983-20.81 42.194-13.87 10.211-32.56 15.317-56.06 15.317zM1222.75 286c-1.93 0-3.57-.578-4.92-1.734-1.15-1.349-1.73-2.986-1.73-4.913V87.4571c0-1.9267.58-3.468 1.73-4.624 1.35-1.3487 2.99-2.023 4.92-2.023h13.58c1.93 0 3.47.6743 4.62 2.023 1.35 1.156 2.03 2.6973 2.03 4.624V188.029l56.93-47.396c.58-.385 1.54-1.156 2.89-2.312 1.35-.963 2.6-1.638 3.76-2.023 1.35-.385 2.98-.578 4.91-.578h15.32c1.73 0 3.18.578 4.33 1.734 1.16 1.156 1.74 2.601 1.74 4.335 0 2.119-1.16 3.95-3.47 5.491l-66.76 55.488 73.98 71.961c2.32 1.927 3.47 3.661 3.47 5.202 0 1.734-.58 3.179-1.73 4.335-1.16 1.156-2.6 1.734-4.34 1.734h-15.03c-2.89 0-5-.289-6.35-.867-1.16-.578-2.89-1.927-5.21-4.046l-64.44-61.557v59.823c0 1.927-.68 3.564-2.03 4.913-1.15 1.156-2.69 1.734-4.62 1.734h-13.58zM1419.33 288.89c-21.19 0-37.67-5.973-49.42-17.918-11.56-11.945-17.73-27.84-18.5-47.685l-.29-12.427.29-12.427c.77-19.652 7.04-35.451 18.79-47.396 11.75-12.138 28.13-18.207 49.13-18.207 21 0 37.38 6.069 49.13 18.207 11.75 11.945 18.01 27.744 18.78 47.396.2 2.119.29 6.262.29 12.427s-.09 10.308-.29 12.427c-.77 19.845-7.03 35.74-18.78 47.685-11.56 11.945-27.94 17.918-49.13 17.918zm0-22.253c12.14 0 21.67-3.853 28.61-11.56 7.13-7.707 10.98-18.785 11.56-33.235.19-1.927.29-5.587.29-10.982s-.1-9.055-.29-10.982c-.58-14.45-4.43-25.528-11.56-33.235-6.94-7.707-16.47-11.56-28.61-11.56s-21.77 3.853-28.9 11.56c-7.13 7.707-10.89 18.785-11.27 33.235l-.29 10.982.29 10.982c.38 14.45 4.14 25.528 11.27 33.235 7.13 7.707 16.76 11.56 28.9 11.56zM1530.66 340.91c-1.93 0-3.57-.674-4.92-2.023-1.15-1.156-1.73-2.697-1.73-4.624V142.367c0-1.927.58-3.468 1.73-4.624 1.35-1.349 2.99-2.023 4.92-2.023h13.29c1.93 0 3.47.674 4.63 2.023 1.34 1.156 2.02 2.697 2.02 4.624v12.716c10.79-14.835 26.59-22.253 47.39-22.253 20.23 0 35.36 6.358 45.38 19.074 10.21 12.716 15.7 29.093 16.47 49.13.19 2.119.29 5.395.29 9.826 0 4.431-.1 7.707-.29 9.826-.77 19.845-6.26 36.221-16.47 49.13-10.21 12.716-25.34 19.074-45.38 19.074-20.03 0-35.64-7.225-46.81-21.675v67.048c0 1.927-.58 3.468-1.74 4.624-1.15 1.349-2.7 2.023-4.62 2.023h-14.16zm61.27-75.429c13.67 0 23.6-4.239 29.76-12.716 6.36-8.477 9.83-19.652 10.41-33.524.19-1.927.29-4.72.29-8.381 0-36.414-13.49-54.621-40.46-54.621-13.3 0-23.32 4.431-30.06 13.294-6.55 8.67-10.12 19.074-10.69 31.212l-.29 10.982.29 11.271c.38 11.367 4.04 21.29 10.98 29.767 6.93 8.477 16.86 12.716 29.77 12.716z" fill="#000"/></g><defs><clipPath id="clip0"><path fill="#fff" d="M0 0h1677v364H0z"/></clipPath></defs></svg>